<?xml version="1.0" encoding="UTF-8"?>
<svg id="Layer_1" data-name="Layer 1" xmlns="http://www.w3.org/2000/svg" viewBox="0 0 792 612">
  <defs>
    <style>
      .cls-1 {
        fill: #1f5e2f;
      }

      .cls-2 {
        fill: #8d6d2a;
      }
    </style>
  </defs>
  <g>
    <path class="cls-1" d="m318.03,234.14c9.39-38.67,30.33-73.33,60.1-99.66-8.91-6.69-18.43-12.61-28.49-17.62,0,0,.03,0,.03,0-10.23-5.74-22.9-10.2-37.06-13.65l-8.65-1.95c-30.71-6.36-67.14-8.51-100.88-8.68h0s-.43,0-.43,0c-2.69-.01-5.36-.01-8.02,0h-98.94s0,5.16,0,5.16v89.95h103.37c71.31,0,105.56,20.29,118.97,46.45Z"/>
    <path class="cls-1" d="m312.47,280.83c0-5,.21-9.97.58-14.89-36.38-14.33-87.02-6.99-134.41-6.99v86.56c63.16,0,111.9-2.45,133.84,16.69v-81.37Z"/>
  </g>
  <path class="cls-2" d="m426.89,116.86s-.03,0-.03,0c10.23-5.74,22.9-10.2,37.06-13.65l8.65-1.95c30.71-6.36,67.14-8.51,100.88-8.68h0s.43,0,.43,0c2.69-.01,5.36-.01,8.02,0h98.94s0,5.16,0,5.16v89.95h-2.04s-.2,0-.2,0h-12.7s-88.44,0-88.44,0c-98.15,0-126.14,38.44-126.14,77.71v6.48c36.64-22.11,93.64-12.92,146.56-12.92v86.56c-86.51,0-146.05-4.65-146.56,47.99v61.35s0,94.79,0,94.79h-126.14v-268.8c0-71.87,41.44-134,101.7-163.97Z"/>
</svg>